<svg xmlns="http://www.w3.org/2000/svg" viewBox="0 0 400 400">
  <!-- Dark Background -->
  <rect width="400" height="400" fill="#121212"/>
  
  <!-- Abstract network representation -->
  <path d="M0,200 C100,100 300,300 400,200" stroke="#2c3e50" stroke-width="0.5" fill="none"/>
  <path d="M200,0 C100,100 300,300 200,400" stroke="#2c3e50" stroke-width="0.5" fill="none"/>
  
  <!-- Heatmap representation -->
  <circle cx="100" cy="100" r="80" fill="#e74c3c" opacity="0.3"/>
  <circle cx="150" cy="150" r="60" fill="#f39c12" opacity="0.3"/>
  <circle cx="80" cy="180" r="40" fill="#3498db" opacity="0.3"/>
  
  <!-- Session recording lines -->
  <path d="M50,350 Q200,50 350,350" stroke="#9b59b6" stroke-width="2" fill="none"/>
  <path d="M30,300 Q200,100 370,300" stroke="#1abc9c" stroke-width="2" fill="none"/>
  
  <!-- Data points -->
  <circle cx="100" cy="250" r="5" fill="#e74c3c"/>
  <circle cx="200" cy="200" r="7" fill="#f39c12"/>
  <circle cx="300" cy="300" r="6" fill="#3498db"/>
  <circle cx="250" cy="100" r="4" fill="#9b59b6"/>
  <circle cx="350" cy="150" r="5" fill="#1abc9c"/>
  
  <!-- Abstract shapes representing different tools -->
  <rect x="50" y="50" width="40" height="40" fill="#e74c3c" transform="rotate(45 70 70)" opacity="0.8"/>
  <polygon points="320,60 350,30 380,60 350,90" fill="#f39c12" opacity="0.8"/>
  <ellipse cx="300" cy="350" rx="40" ry="20" fill="#3498db" opacity="0.8"/>
  <path d="M30,200 L60,240 L90,200 Z" fill="#9b59b6" opacity="0.8"/>
  <rect x="150" y="300" width="100" height="20" rx="10" ry="10" fill="#1abc9c" opacity="0.8"/>
  
  <!-- Additional intriguing elements -->
  <path d="M200,200 L220,220 L240,180 L260,240 L280,200" stroke="#ecf0f1" stroke-width="1" fill="none"/>
  <circle cx="200" cy="200" r="100" stroke="#34495e" stroke-width="0.5" fill="none"/>
  <path d="M100,100 Q200,0 300,100 T500,100" stroke="#7f8c8d" stroke-width="1" fill="none"/>
  
  <!-- Pulsating effect -->
  <circle cx="200" cy="200" r="5" fill="#e74c3c">
    <animate attributeName="r" values="5;10;5" dur="4s" repeatCount="indefinite"/>
    <animate attributeName="opacity" values="0.8;0.3;0.8" dur="4s" repeatCount="indefinite"/>
  </circle>
</svg>
